# xmcd CD database file
#
# Track frame offsets:
#	182
#	13622
#	25590
#	45395
#	64657
#	79577
#	98527
#	121385
#	145105
#	160782
#	176640
#	189450
#	207357
#	234677
#	249582
#	273332
#	289540
#	303425
#
# Disc length: 4239 seconds
#
# Revision: 1
# Processed by: cddbd v1.5.2PL0 Copyright (c) Steve Scherf et al.
# Submitted via: CDex 1.51
#
DISCID=e8108d12
DTITLE=Helen Merrill - Vol. 234 - Dream of You
DYEAR=1965
DGENRE=Jazz
TTITLE0=Dream Of You
TTITLE1=People Will Say We're In Love
TTITLE2=You'd Be So Nice To Come Home To
TTITLE3=Any Place I Hang My Hat Is Home
TTITLE4='S Wonderful
TTITLE5=I'm A Fool To Want You
TTITLE6=What's New
TTITLE7=Don't Explain
TTITLE8=By Myself
TTITLE9=You're Lucky To Me
TTITLE10=Where Flamingos Fly
TTITLE11=Falling In Love With Love
TTITLE12=Yesterdays
TTITLE13=I'm Just A Lucky So And So
TTITLE14=Born To Be Blue
TTITLE15=I've Never Seen
TTITLE16=He Was Too Good To Me
TTITLE17=Troubled Waters
EXTD=YEAR: 1965
EXTT0=
EXTT1=
EXTT2=
EXTT3=
EXTT4=
EXTT5=
EXTT6=
EXTT7=
EXTT8=
EXTT9=
EXTT10=
EXTT11=
EXTT12=
EXTT13=
EXTT14=
EXTT15=
EXTT16=
EXTT17=
PLAYORDER=
